<svg xmlns="http://www.w3.org/2000/svg" xmlns:xlink="http://www.w3.org/1999/xlink" viewBox="0,0,256,256" width="64px" height="64px" fill-rule="nonzero"><g fill="#107cc9" fill-rule="nonzero" stroke="none" stroke-width="1" stroke-linecap="butt" stroke-linejoin="miter" stroke-miterlimit="10" stroke-dasharray="" stroke-dashoffset="0" font-family="none" font-weight="none" font-size="none" text-anchor="none" style="mix-blend-mode: normal"><g transform="scale(4,4)"><path d="M29.5625,2c-1.38281,0 -2.57812,0.93359 -2.91016,2.27344l-1.73047,6.89063c-0.87891,0.30078 -1.76562,0.67188 -2.64062,1.11328l-6.10547,-3.66797c-1.18359,-0.70703 -2.6875,-0.51953 -3.66406,0.45313l-3.44922,3.44922c-0.97656,0.97266 -1.16016,2.48047 -0.45312,3.66406l3.66016,6.10547c-0.42969,0.86719 -0.80078,1.75781 -1.09766,2.64453l-6.89844,1.72656c-1.33984,0.33203 -2.27344,1.53125 -2.27344,2.91016v4.875c0,1.38281 0.93359,2.57813 2.27344,2.91016l6.89063,1.73047c0.30078,0.88281 0.67578,1.77344 1.11328,2.64063l-3.66797,6.10547c-0.70703,1.18359 -0.52344,2.6875 0.45313,3.66406l3.44922,3.44922c0.97656,0.97656 2.48047,1.16016 3.66406,0.45313l6.10547,-3.66016c0.875,0.43359 1.76563,0.80469 2.64453,1.09766l1.72656,6.90234c0.33203,1.33594 1.53125,2.26953 2.91016,2.26953h4.875c1.38281,0 2.57813,-0.93359 2.91016,-2.26953l1.73047,-6.89453c0.87891,-0.30078 1.76563,-0.67187 2.64063,-1.11328l6.10547,3.66797c1.18359,0.70703 2.6875,0.51953 3.66406,-0.45312l3.44922,-3.44922c0.97656,-0.97266 1.16016,-2.48047 0.45313,-3.66406l-3.66016,-6.10547c0.42969,-0.86719 0.80078,-1.75781 1.09766,-2.64453l6.89844,-1.72656c1.33984,-0.33203 2.27344,-1.53125 2.27344,-2.91016v-4.875c0,-1.37891 -0.93359,-2.57812 -2.26953,-2.91016l-6.89453,-1.73047c-0.30078,-0.88281 -0.67578,-1.77344 -1.11328,-2.64062l3.66797,-6.10547c0.70703,-1.18359 0.52344,-2.6875 -0.45312,-3.66406l-3.44922,-3.44922c-0.97656,-0.97656 -2.48047,-1.16016 -3.66406,-0.45312l-6.10547,3.66016c-0.875,-0.43359 -1.76562,-0.80469 -2.64453,-1.09766l-1.72656,-6.89844c-0.33203,-1.33984 -1.53125,-2.27344 -2.91016,-2.27344zM29.5625,4h4.875c0.46094,0 0.85938,0.3125 0.96875,0.75781l1.72656,6.89844c0.16406,0.65234 0.64844,1.17969 1.30078,1.40234c0.79297,0.26953 1.59766,0.60938 2.39453,1.00391c0.61719,0.30859 1.33203,0.27734 1.91797,-0.07422l6.10938,-3.66016c0.39453,-0.23828 0.89453,-0.17578 1.21875,0.14844l3.44922,3.44531c0.32422,0.32813 0.38672,0.83203 0.14844,1.22266l-3.66016,6.10547c-0.35156,0.58594 -0.37891,1.30469 -0.07422,1.92188c0.39453,0.78906 0.73047,1.59375 1.00391,2.39453c0.22266,0.64844 0.75,1.13672 1.40234,1.29688l6.89453,1.72656c0.44922,0.11328 0.76172,0.51172 0.76172,0.97266v4.875c0,0.46094 -0.3125,0.85938 -0.75781,0.96875l-6.89844,1.72656c-0.65234,0.16406 -1.17969,0.64844 -1.40234,1.30078c-0.26953,0.80078 -0.60937,1.60547 -1.00391,2.39453c-0.30469,0.61719 -0.27734,1.33203 0.07422,1.91797l3.66406,6.10938c0.23438,0.39063 0.17188,0.89453 -0.14844,1.21875l-3.44922,3.44922c-0.32812,0.32422 -0.83203,0.38672 -1.22266,0.14844l-6.10547,-3.66016c-0.58594,-0.35156 -1.30469,-0.37891 -1.92187,-0.07422c-0.79297,0.39453 -1.59766,0.73047 -2.39453,1.00391c-0.64844,0.22266 -1.13672,0.75 -1.29687,1.40234l-1.72656,6.89453c-0.11328,0.44922 -0.51172,0.76172 -0.97266,0.76172h-4.875c-0.46094,0 -0.85937,-0.3125 -0.96875,-0.75781l-1.72656,-6.89844c-0.16406,-0.65234 -0.64844,-1.17969 -1.30078,-1.40234c-0.79297,-0.26953 -1.59766,-0.60937 -2.39453,-1.00391c-0.28516,-0.14062 -0.59375,-0.21094 -0.89844,-0.21094c-0.35547,0 -0.70703,0.09375 -1.01953,0.28516l-6.10937,3.66016c-0.39062,0.23828 -0.89453,0.17578 -1.21875,-0.14844l-3.44922,-3.44531c-0.32422,-0.32812 -0.38672,-0.83203 -0.14844,-1.22266l3.66016,-6.10547c0.35156,-0.58594 0.37891,-1.30469 0.07422,-1.92187c-0.39453,-0.78906 -0.73047,-1.59375 -1.00391,-2.39453c-0.22266,-0.64844 -0.75,-1.13672 -1.40234,-1.29687l-6.89844,-1.72656c-0.44531,-0.11328 -0.75781,-0.51172 -0.75781,-0.97266v-4.875c0,-0.46094 0.3125,-0.85937 0.75781,-0.97266l6.89844,-1.72656c0.65234,-0.16016 1.17969,-0.64844 1.40234,-1.29687c0.26953,-0.80078 0.60938,-1.60547 1.00391,-2.39453c0.30469,-0.61719 0.27734,-1.33594 -0.07422,-1.92187l-3.66406,-6.10547c-0.23437,-0.39062 -0.17187,-0.89453 0.14844,-1.22266l3.44922,-3.44531c0.32422,-0.32422 0.82813,-0.38672 1.22266,-0.14844l6.10547,3.66016c0.58594,0.35156 1.30469,0.37891 1.92188,0.07422c0.79297,-0.39453 1.59766,-0.73437 2.39453,-1.00391c0.64844,-0.22656 1.13672,-0.75 1.29688,-1.40234l1.72656,-6.89844c0.11328,-0.44531 0.51172,-0.75781 0.97266,-0.75781zM33.875,18.125c-0.53516,-0.07031 -1.04687,0.3125 -1.12109,0.85938c-0.07422,0.54688 0.30859,1.05078 0.85547,1.125c0.71875,0.09375 1.42969,0.25781 2.12109,0.48047c0.10156,0.03125 0.20313,0.05078 0.30469,0.05078c0.42188,0 0.81641,-0.27344 0.95313,-0.69141c0.17188,-0.52734 -0.11719,-1.08984 -0.64062,-1.26172c-0.80469,-0.26172 -1.63281,-0.45312 -2.47266,-0.5625zM29.04297,18.38672c-0.12891,-0.01953 -0.26172,-0.01562 -0.39844,0.01953c-6.26562,1.53906 -10.64453,7.12891 -10.64453,13.59375c0,5.19531 2.85156,9.94141 7.44922,12.375c0.14844,0.08203 0.3125,0.11719 0.46875,0.11719c0.35938,0 0.70313,-0.19141 0.88281,-0.53125c0.25781,-0.48828 0.07422,-1.09375 -0.41406,-1.35156c-3.9375,-2.08984 -6.38672,-6.15625 -6.38672,-10.60937c0,-5.53906 3.75,-10.33203 9.125,-11.65234c0.53516,-0.13281 0.86328,-0.67578 0.73047,-1.21094c-0.09766,-0.40234 -0.42578,-0.6875 -0.8125,-0.75zM41.19141,21.80859c-0.25391,0 -0.51172,0.09766 -0.70703,0.29297l-1.41406,1.41406c-0.39062,0.39063 -0.39062,1.02344 0,1.41406c0.19531,0.19531 0.44922,0.29297 0.70703,0.29297c0.25781,0 0.51172,-0.09766 0.70703,-0.29297l1.41406,-1.41406c0.39063,-0.39062 0.39063,-1.02344 0,-1.41406c-0.19531,-0.19531 -0.45312,-0.29297 -0.70703,-0.29297zM32,24c-4.41016,0 -8,3.58984 -8,8c0,4.41016 3.58984,8 8,8c4.41016,0 8,-3.58984 8,-8c0,-4.41016 -3.58984,-8 -8,-8zM43.96484,25.92188c-0.12891,0 -0.26172,0.02344 -0.38672,0.07813l-1.84375,0.78125c-0.50781,0.21484 -0.74609,0.80469 -0.53125,1.3125c0.16406,0.38281 0.53516,0.60938 0.92188,0.60938c0.13281,0 0.26172,-0.02734 0.39063,-0.07812l1.84375,-0.78125c0.50781,-0.21875 0.74219,-0.80469 0.52734,-1.3125c-0.16016,-0.38281 -0.53125,-0.61328 -0.92187,-0.60937zM32,26c3.30859,0 6,2.69141 6,6c0,3.30859 -2.69141,6 -6,6c-3.30859,0 -6,-2.69141 -6,-6c0,-3.30859 2.69141,-6 6,-6zM32,30c-1.10547,0 -2,0.89453 -2,2c0,1.10547 0.89453,2 2,2c1.10547,0 2,-0.89453 2,-2c0,-1.10547 -0.89453,-2 -2,-2zM43,31c-0.55078,0 -1,0.44531 -1,1c0,0.55469 0.44922,1 1,1h2c0.55078,0 1,-0.44531 1,-1c0,-0.55469 -0.44922,-1 -1,-1zM42.18359,35.12109c-0.39062,0.00781 -0.75781,0.24219 -0.91406,0.625c-0.20312,0.51172 0.04297,1.09766 0.55469,1.30078l1.85547,0.75c0.12109,0.05078 0.25,0.07422 0.37109,0.07422c0.39844,0 0.77344,-0.23828 0.92969,-0.625c0.20703,-0.51562 -0.03906,-1.09766 -0.55469,-1.30469l-1.85156,-0.75c-0.12891,-0.05078 -0.26172,-0.07422 -0.39062,-0.07031zM39.77734,38.77734c-0.25391,0 -0.51172,0.09766 -0.70703,0.29297c-0.39062,0.39063 -0.39062,1.02344 0,1.41406l1.41406,1.41406c0.19531,0.19531 0.44922,0.29297 0.70703,0.29297c0.25781,0 0.51172,-0.09766 0.70703,-0.29297c0.39063,-0.39062 0.39063,-1.02344 0,-1.41406l-1.41406,-1.41406c-0.19531,-0.19531 -0.45312,-0.29297 -0.70703,-0.29297zM36.29688,41.125c-0.12891,0 -0.26172,0.02734 -0.39062,0.07813c-0.50781,0.21875 -0.74609,0.80469 -0.53125,1.3125l0.78125,1.84375c0.16406,0.37891 0.53516,0.60938 0.92188,0.60938c0.13281,0 0.26563,-0.02734 0.39063,-0.07812c0.51172,-0.21875 0.74609,-0.80469 0.53125,-1.3125l-0.78125,-1.84375c-0.16016,-0.38281 -0.53125,-0.60937 -0.92187,-0.60937zM32,42c-0.55078,0 -1,0.44531 -1,1v2c0,0.55469 0.44922,1 1,1c0.55078,0 1,-0.44531 1,-1v-2c0,-0.55469 -0.44922,-1 -1,-1z"></path></g></g></svg>